<?xml version="1.0" standalone="no"?>
<!DOCTYPE svg PUBLIC "-//W3C//DTD SVG 20010904//EN"
 "http://www.w3.org/TR/2001/REC-SVG-20010904/DTD/svg10.dtd">
<svg version="1.0" xmlns="http://www.w3.org/2000/svg"
 width="778.000000pt" height="778.000000pt" viewBox="0 0 778.000000 778.000000"
 preserveAspectRatio="xMidYMid meet">
<metadata>
Created by potrace 1.11, written by Peter Selinger 2001-2013
</metadata>
<g transform="translate(0.000000,778.000000) scale(0.100000,-0.100000)"
fill="#000000" stroke="none">
<path d="M5368 7015 c-2 -2 -45 -6 -97 -10 -52 -3 -97 -8 -100 -9 -3 -2 -29
-6 -58 -10 -28 -3 -82 -12 -120 -20 -38 -8 -80 -17 -93 -19 -90 -17 -391 -113
-464 -148 -22 -10 -43 -19 -48 -19 -20 0 -328 -155 -440 -221 -129 -75 -314
-199 -385 -257 l-43 -34 -67 44 c-172 112 -379 217 -556 282 -98 37 -288 89
-362 100 -66 10 -98 16 -130 22 -40 7 -338 13 -393 7 -23 -3 -42 -8 -42 -12 0
-4 46 -15 103 -25 326 -53 614 -167 817 -322 55 -42 136 -117 177 -164 l23
-26 -30 -2 c-52 -4 -154 -41 -206 -74 -76 -49 -114 -85 -206 -200 -120 -149
-199 -240 -307 -352 -91 -93 -259 -242 -265 -235 -2 2 -27 45 -56 94 -95 159
-202 301 -333 442 -54 58 -59 67 -65 120 -9 78 -8 255 1 328 7 55 13 91 31
170 6 27 5 26 -13 -9 -62 -118 -140 -361 -156 -484 -18 -142 -16 -155 27 -212
115 -152 250 -368 338 -540 l59 -117 -20 -64 c-22 -70 -20 -128 5 -176 21 -42
93 -108 137 -129 32 -14 42 -26 58 -68 15 -42 33 -123 36 -160 0 -4 -27 -10
-60 -12 -33 -3 -71 -6 -84 -9 -122 -22 -530 -23 -636 -2 -11 3 -42 8 -70 11
-65 10 -195 42 -270 68 -316 108 -533 312 -624 584 -20 61 -22 70 -42 182 -18
99 -15 340 5 437 2 11 7 40 11 65 12 72 13 80 41 188 14 57 24 105 22 107 -7
8 -125 -169 -175 -262 -238 -444 -281 -935 -121 -1392 40 -115 135 -308 198
-404 102 -154 330 -356 520 -462 123 -68 289 -132 394 -151 16 -2 32 -6 35 -8
3 -2 33 -7 66 -11 33 -3 74 -8 90 -11 24 -3 318 -15 375 -14 12 0 16 -11 17
-43 2 -48 26 -124 53 -170 l19 -31 -52 -100 c-51 -98 -52 -103 -52 -186 1 -78
4 -91 38 -161 24 -48 64 -105 108 -152 58 -63 79 -79 123 -93 l53 -17 17 -75
c20 -86 75 -252 99 -298 53 -102 237 -171 463 -173 l80 -1 27 -88 c25 -81 58
-222 72 -302 3 -19 8 -48 11 -65 16 -94 54 -407 49 -414 -2 -4 0 -13 4 -20 15
-24 86 193 152 469 l33 135 17 -75 c19 -84 45 -250 54 -350 3 -36 8 -83 10
-105 4 -35 13 -163 19 -277 1 -21 5 -40 8 -44 16 -16 127 270 178 456 47 176
96 432 114 603 3 29 16 49 17 26 0 -8 2 -21 4 -29 1 -8 5 -31 9 -50 3 -19 8
-44 10 -55 4 -21 17 -117 21 -164 9 -92 18 -193 20 -236 6 -120 4 -116 37 -45
90 193 164 464 185 680 3 30 7 64 8 75 1 11 3 60 4 109 0 49 3 87 6 84 7 -6
71 -319 80 -384 3 -27 9 -75 14 -107 4 -31 7 -78 6 -102 0 -25 3 -44 8 -42 4
1 26 43 49 92 22 50 50 113 63 140 87 193 215 548 215 598 0 52 21 -7 56 -158
17 -70 33 -177 34 -215 0 -28 3 -41 10 -34 17 17 235 457 275 556 22 54 43 98
46 98 4 0 9 -12 12 -27 4 -16 13 -60 22 -100 17 -81 23 -122 25 -173 1 -31 7
-23 57 80 167 347 314 766 377 1074 17 80 24 126 25 156 1 18 17 -4 57 -79 58
-109 94 -167 153 -241 215 -273 574 -494 941 -579 329 -77 576 -24 766 164
177 174 365 537 470 908 29 105 71 294 78 359 3 26 8 58 11 70 20 91 30 270
30 553 0 281 -5 383 -25 485 -6 30 -13 67 -15 81 -10 57 -59 210 -96 304 -197
490 -649 935 -1150 1134 -221 87 -411 134 -678 166 -55 7 -378 15 -383 10z
m355 -110 c43 -3 88 -8 100 -10 12 -2 38 -6 57 -9 319 -51 668 -187 935 -365
162 -108 297 -241 426 -422 64 -88 144 -224 127 -213 -14 9 -10 -7 35 -151 19
-60 38 -128 41 -150 4 -22 8 -47 11 -55 6 -21 14 -66 21 -120 3 -25 7 -52 9
-60 27 -98 27 -710 0 -870 -2 -14 -6 -56 -10 -95 -3 -38 -8 -71 -10 -73 -2 -2
-43 -15 -92 -29 -48 -14 -93 -29 -99 -34 -7 -5 -15 -31 -19 -57 -9 -67 -59
-261 -94 -367 -21 -64 -26 -94 -19 -102 6 -7 9 -13 7 -14 -2 0 -26 -3 -53 -6
-45 -5 -48 -4 -41 13 43 103 123 376 141 482 2 12 6 34 8 48 6 33 24 54 45 54
20 0 143 40 154 50 10 8 13 28 22 120 4 41 9 83 11 93 21 111 21 626 -1 758
-2 13 -6 47 -10 74 -3 28 -8 59 -10 70 -3 11 -7 31 -9 45 -19 111 -76 310 -89
310 -5 0 -6 -7 -3 -17 26 -68 81 -300 91 -388 4 -27 8 -61 11 -75 10 -63 18
-219 18 -375 0 -158 -11 -392 -19 -419 -5 -13 -17 -134 -17 -158 1 -24 -13
-33 -111 -63 -100 -32 -83 -4 -138 -235 -26 -111 -81 -290 -114 -372 -8 -21
-55 -21 -55 0 0 7 7 29 16 50 14 33 49 134 60 172 34 125 84 329 84 346 0 30
12 37 110 69 47 15 88 32 91 38 4 5 9 37 13 71 11 111 16 150 22 201 10 85 12
506 3 585 -4 41 -11 100 -14 130 -4 30 -11 78 -16 105 -6 28 -12 61 -15 75 -9
48 -45 173 -54 189 -16 27 -11 -3 15 -101 29 -109 44 -188 61 -323 10 -77 11
-546 2 -650 -10 -106 -28 -246 -34 -267 -2 -9 -17 -19 -32 -24 -30 -8 -31 -9
-52 -16 -8 -3 -36 -13 -63 -23 -33 -12 -48 -23 -52 -38 -28 -139 -41 -189 -70
-294 -54 -190 -94 -293 -113 -293 -30 1 -162 75 -250 141 -114 84 -326 295
-318 315 3 8 13 40 22 70 l16 56 80 39 c45 21 83 40 85 42 2 3 12 40 23 83 16
70 22 100 36 194 15 94 18 154 19 295 0 145 -4 197 -20 290 -22 120 -83 278
-145 374 -21 33 -40 70 -42 83 -4 33 -53 38 -63 7 -8 -24 19 -53 41 -45 22 8
122 -183 164 -314 71 -223 69 -549 -6 -886 l-16 -72 -83 -42 c-84 -41 -84 -41
-99 -94 -9 -30 -16 -59 -16 -66 0 -15 -21 -8 -33 11 -6 10 -3 34 9 74 19 59
20 59 99 101 77 40 80 43 92 90 6 26 14 67 18 91 3 23 8 48 10 55 22 63 29
437 10 541 -20 113 -53 224 -85 287 -18 35 -26 65 -23 81 5 29 -16 44 -49 33
-26 -8 -20 -46 9 -59 19 -8 63 -88 87 -159 15 -43 45 -195 52 -261 12 -110 6
-312 -11 -420 -3 -16 -7 -43 -10 -60 -2 -16 -7 -48 -10 -70 -13 -89 -20 -99
-105 -144 l-79 -42 -17 -60 c-15 -53 -18 -58 -30 -41 -10 14 -10 29 -2 63 13
53 17 58 93 98 33 18 65 38 71 44 11 12 38 129 49 212 3 22 8 112 12 200 4
124 2 178 -10 240 -20 102 -22 111 -37 165 -7 25 -13 63 -14 85 -1 37 -3 40
-31 40 -40 0 -47 -32 -12 -60 27 -22 56 -113 78 -245 18 -116 15 -352 -7 -465
-4 -17 -7 -37 -8 -45 -6 -39 -19 -97 -27 -111 -5 -9 -37 -31 -71 -49 -83 -43
-85 -45 -93 -91 -4 -21 -10 -41 -14 -43 -4 -3 -27 20 -51 51 l-43 55 22 62
c70 189 96 341 88 515 -3 69 -8 135 -10 146 -46 199 -127 361 -245 488 l-45
47 40 -14 c41 -14 84 -36 93 -47 3 -3 14 -11 25 -17 14 -7 20 -21 20 -44 0
-26 5 -34 21 -36 25 -4 49 22 40 43 -3 9 -19 21 -36 26 -16 6 -30 14 -30 19 0
10 -123 74 -171 89 -20 6 -46 22 -58 35 l-22 24 38 -8 c91 -18 197 -72 216
-110 16 -32 43 -37 56 -11 16 30 3 53 -29 49 -15 -1 -38 5 -51 13 -40 26 -116
57 -174 71 -47 11 -54 15 -53 35 2 21 6 22 38 17 74 -14 165 -54 191 -86 18
-21 31 -29 43 -25 41 16 23 73 -20 63 -13 -4 -44 4 -75 19 -30 13 -79 31 -109
38 -55 14 -55 15 -55 53 0 42 32 234 40 242 3 3 5 -3 6 -14 0 -10 2 -28 4 -39
14 -82 14 -120 -1 -136 -32 -35 13 -72 47 -38 21 21 21 21 2 42 -13 15 -24 51
-31 107 -7 47 -15 101 -18 120 -4 19 -7 41 -8 49 -4 24 -34 31 -158 38 l-124
6 -55 -69 c-31 -38 -61 -79 -68 -92 -15 -29 -40 -38 -121 -46 -36 -4 -101 -16
-145 -27 -44 -11 -90 -22 -101 -25 -44 -8 -200 -56 -229 -69 -56 -26 -107 -45
-119 -45 -6 0 -41 28 -77 63 -36 34 -74 67 -84 73 -18 10 -17 12 13 28 18 10
38 16 43 14 6 -2 23 -33 39 -68 16 -35 33 -66 38 -68 5 -1 56 15 113 36 183
69 330 107 529 137 31 4 43 16 90 81 86 121 93 124 208 119 54 -2 111 -6 127
-9 17 -3 52 -7 80 -10 27 -4 52 -9 57 -14 4 -4 10 -32 14 -62 3 -30 10 -73 14
-95 6 -24 5 -44 -1 -50 -5 -5 -9 -19 -9 -31 0 -27 34 -41 55 -24 21 17 19 36
-5 53 -19 13 -26 38 -35 124 -11 108 -9 106 -105 117 -193 23 -275 26 -310 14
-14 -5 -47 -41 -75 -79 -27 -38 -58 -80 -67 -93 -14 -18 -31 -25 -80 -30 -35
-4 -117 -21 -183 -37 -66 -17 -124 -31 -130 -33 -31 -7 -212 -70 -220 -77 -6
-4 -23 -9 -38 -11 -26 -3 -30 2 -56 61 -15 36 -32 66 -39 69 -6 2 -32 -6 -58
-17 -46 -21 -46 -21 -71 -1 l-25 20 48 21 c27 11 70 29 97 40 l48 19 34 -75
33 -74 104 35 c156 53 309 91 438 109 38 6 50 13 70 43 14 20 48 67 77 104
l51 67 149 -3 c81 -2 159 -7 173 -9 14 -3 43 -8 65 -11 113 -16 274 -73 287
-102 19 -41 68 -35 68 8 0 19 -28 38 -47 31 -7 -3 -55 9 -105 26 -182 59 -263
72 -468 76 l-125 2 -38 -41 c-21 -23 -57 -69 -79 -103 -44 -68 -47 -69 -128
-78 -59 -6 -271 -61 -387 -101 -39 -13 -78 -24 -86 -24 -9 0 -26 28 -43 70
-16 38 -33 70 -37 70 -5 0 -56 -20 -114 -45 l-105 -45 -40 24 -40 24 48 22
c110 51 289 119 295 112 3 -4 16 -34 29 -67 13 -33 27 -64 31 -69 4 -5 69 11
146 34 99 31 156 44 203 44 61 1 65 3 68 25 3 21 -11 40 -30 41 -4 0 -17 -10
-28 -22 -12 -13 -24 -23 -28 -23 -4 -1 -25 -4 -47 -8 -39 -8 -63 -15 -193 -57
-34 -11 -66 -20 -71 -20 -5 0 -14 15 -21 33 -22 58 -50 117 -55 117 -11 0
-214 -83 -288 -117 -69 -32 -80 -35 -105 -24 l-27 13 30 16 c87 46 422 179
429 170 2 -1 16 -36 31 -75 16 -40 31 -73 34 -73 3 0 35 9 71 21 56 17 191 48
282 64 16 3 37 0 48 -7 26 -17 55 9 45 41 -8 25 -43 28 -59 6 -6 -9 -25 -18
-41 -21 -58 -10 -270 -63 -299 -74 -37 -14 -48 -4 -70 65 -27 83 -24 81 -112
50 -94 -32 -300 -118 -364 -150 -42 -21 -48 -22 -80 -9 l-34 15 127 59 c71 33
133 60 139 60 5 0 22 7 36 15 70 38 292 110 302 98 4 -5 17 -36 30 -71 12 -34
26 -64 30 -67 4 -2 38 5 76 15 65 19 265 61 309 64 11 1 28 -1 37 -6 11 -5 22
-2 32 8 21 20 20 41 -1 53 -20 11 -53 -3 -53 -22 0 -8 -27 -17 -67 -24 -107
-19 -125 -22 -225 -47 -51 -13 -96 -22 -100 -19 -4 2 -17 35 -29 73 -13 39
-28 70 -34 70 -11 0 -151 -45 -230 -74 -70 -25 -257 -107 -329 -143 -65 -33
-72 -34 -109 -23 -21 6 -37 13 -35 15 13 13 264 131 360 168 181 72 454 158
508 161 22 1 27 -6 42 -54 33 -104 29 -101 90 -84 29 7 78 16 108 19 30 3 64
8 75 10 55 11 172 18 283 17 l123 -1 -6 37 c-5 34 -18 90 -32 136 -5 18 -14
18 -157 12 -83 -3 -162 -8 -176 -10 -14 -3 -50 -7 -80 -10 -77 -9 -116 -21
-112 -36 2 -7 9 -27 16 -45 l14 -32 108 18 c136 22 161 23 181 4 19 -19 42
-16 56 7 21 33 -32 65 -61 36 -6 -6 -24 -12 -39 -13 -48 -3 -146 -16 -184 -24
-42 -10 -54 -5 -63 26 -9 28 0 32 76 39 34 3 65 7 69 9 5 4 234 18 279 18 54
-1 58 -3 65 -40 9 -44 11 -49 20 -84 l7 -27 -104 2 c-57 1 -143 -4 -193 -10
-49 -7 -115 -15 -145 -19 -30 -3 -73 -11 -95 -16 -75 -16 -81 -14 -95 39 -7
26 -19 60 -27 75 -17 34 -2 36 -220 -29 -124 -37 -276 -90 -397 -139 -16 -7
-17 -6 -6 14 6 13 33 32 58 43 134 57 139 59 267 97 110 33 207 59 245 67 14
3 41 9 61 14 42 12 129 29 179 36 19 2 49 7 65 9 96 15 417 24 447 12 10 -3
21 -28 28 -64 15 -71 34 -107 26 -48 -15 104 -23 124 -54 132 -50 12 -322 5
-397 -10 -11 -3 -46 -8 -77 -11 -107 -13 -279 -48 -373 -76 -162 -50 -301 -96
-376 -125 -59 -23 -99 -33 -115 -29 -48 12 -69 -47 -22 -62 15 -4 -17 -24
-133 -81 l-154 -74 -65 12 c-36 7 -116 13 -177 13 -62 1 -112 4 -110 8 11 32
290 249 418 326 254 151 548 265 769 297 24 4 47 8 50 10 3 2 33 7 65 10 33 4
67 9 76 10 9 2 63 7 120 10 57 4 105 8 106 9 4 3 185 -3 256 -9z m144 -719
c39 -2 76 -7 81 -10 5 -3 12 -20 16 -37 5 -28 -1 -39 -57 -103 -35 -39 -85
-97 -110 -128 l-46 -58 -11 43 c-6 23 -13 48 -16 55 -3 11 -27 13 -117 8 -179
-8 -414 -63 -639 -149 -65 -25 -67 -25 -84 -6 -9 10 -15 20 -13 22 31 18 51
27 61 27 7 0 25 6 39 14 24 12 160 55 289 90 68 18 157 34 235 42 66 7 60 2
138 107 61 82 82 96 132 91 16 -2 62 -5 102 -8z m-1768 -101 c412 -77 789
-427 1057 -980 l63 -130 -29 -90 c-16 -49 -45 -145 -64 -212 -58 -199 -148
-387 -282 -588 -29 -44 -64 -91 -76 -105 -13 -14 -34 -38 -46 -55 -120 -154
-361 -348 -544 -436 -41 -20 -48 -27 -49 -53 0 -17 -2 -40 -3 -51 -13 -98 -19
-130 -37 -201 -53 -215 -160 -413 -297 -547 l-50 -49 -31 55 c-33 58 -117 156
-105 122 15 -44 45 -152 50 -185 3 -19 7 -37 9 -40 2 -3 6 -25 10 -50 4 -25 8
-47 10 -50 2 -3 6 -24 10 -47 3 -23 8 -57 11 -75 10 -68 12 -296 3 -383 -5
-49 -16 -124 -26 -165 l-16 -75 -9 45 c-18 101 -137 364 -202 445 l-22 27 0
-73 c0 -135 -24 -305 -74 -539 -43 -196 -67 -287 -73 -270 -2 8 -15 60 -27
115 -12 55 -36 141 -52 190 -31 91 -116 275 -128 275 -4 0 -14 -35 -23 -77
-19 -88 -80 -280 -92 -291 -5 -4 -6 -2 -3 3 3 6 1 39 -4 75 -5 36 -11 79 -13
95 -2 17 -8 55 -14 85 -7 30 -14 68 -17 84 -3 16 -7 33 -10 37 -3 5 21 22 53
38 222 112 381 293 462 524 17 48 28 87 26 87 -2 0 0 12 5 28 9 25 9 26 -5 8
-8 -11 -15 -25 -15 -32 0 -15 -74 -150 -107 -193 -117 -156 -389 -322 -581
-357 -86 -16 -201 -2 -293 36 -87 35 -134 70 -159 120 -21 40 -65 186 -71 232
l-4 27 220 5 c344 9 376 14 515 88 132 70 262 191 361 334 l33 49 -49 -38
c-211 -160 -461 -291 -596 -313 -53 -8 -301 -8 -328 1 -37 11 -48 139 -20 223
19 56 83 118 147 142 211 79 338 202 361 349 10 63 5 116 -17 187 l-19 59 0
-60 c0 -79 -26 -135 -97 -213 -85 -91 -257 -197 -419 -257 -47 -18 -48 -18
-93 5 -55 29 -143 114 -178 173 -29 51 -73 176 -79 227 -2 22 6 60 21 100 41
108 196 535 252 693 l53 149 -17 101 c-8 56 -18 125 -22 152 -15 127 -61 198
-179 278 -70 47 -75 53 -75 90 0 65 40 118 235 312 105 105 224 228 265 275
40 47 76 87 79 90 3 3 23 26 44 52 21 26 43 53 50 60 7 7 38 45 69 84 59 74
121 125 197 164 38 19 56 22 125 18 95 -5 151 -30 192 -83 52 -69 62 -176 29
-310 -4 -16 11 5 34 49 84 158 177 265 300 345 134 86 277 105 490 66z m1618
-176 c17 -48 15 -80 -5 -107 l-18 -24 -14 57 -13 56 -70 -2 c-130 -4 -427 -73
-568 -132 -66 -27 -87 -29 -99 -7 -12 23 1 30 169 85 193 62 307 87 486 103
116 11 118 10 132 -29z m-58 -62 c22 -67 22 -93 1 -112 -19 -17 -20 -17 -21 1
0 10 -2 26 -4 34 -3 8 -6 22 -7 30 -6 28 -20 41 -36 36 -10 -3 -37 -8 -62 -11
-25 -3 -72 -12 -105 -20 -33 -7 -78 -16 -100 -19 -22 -4 -107 -29 -188 -56
-129 -43 -151 -48 -163 -35 -8 7 -11 16 -7 18 30 18 237 90 303 105 25 6 59
14 75 18 61 14 219 39 261 41 40 2 43 0 53 -30z m1856 -292 c49 -148 86 -325
100 -475 6 -64 7 -311 1 -355 -2 -16 -7 -55 -10 -85 -34 -316 -47 -391 -88
-514 -44 -134 -94 -222 -164 -291 -75 -74 -161 -122 -182 -101 -12 12 -10 28
17 112 44 143 75 266 86 346 7 43 11 48 44 60 20 7 38 12 41 13 22 3 107 30
117 37 6 5 14 41 18 81 4 40 8 83 10 97 25 174 25 714 0 850 -3 14 -7 45 -10
70 -13 101 -60 303 -95 404 -11 33 -20 62 -19 65 2 19 98 -204 134 -314z
m-1902 238 c20 -92 20 -88 -6 -102 -32 -17 -45 -9 -53 34 -6 36 -27 61 -42 51
-5 -3 -31 -8 -58 -11 -94 -12 -333 -83 -358 -106 -5 -4 -3 -21 4 -39 15 -36 9
-36 145 5 50 15 110 28 135 29 48 1 64 22 40 51 -17 21 -27 19 -55 -11 -13
-14 -39 -30 -57 -34 -18 -5 -66 -18 -107 -30 -60 -18 -75 -19 -82 -8 -22 33
-23 33 166 88 100 29 120 33 201 46 l42 6 11 -38 c6 -22 11 -43 11 -49 0 -18
-61 -45 -160 -70 -54 -14 -137 -39 -185 -55 -48 -17 -91 -30 -96 -28 -9 3
-110 140 -106 144 1 1 63 23 137 49 112 39 379 100 451 104 10 1 19 -9 22 -26z
m171 -175 c-37 -509 80 -948 358 -1350 10 -14 2 -26 -46 -78 -49 -53 -55 -64
-44 -78 100 -131 173 -210 293 -316 l40 -35 33 32 c39 38 40 50 5 73 -36 23
-174 160 -172 171 4 23 -3 42 -17 47 -23 9 -53 -20 -47 -45 5 -18 9 -20 41
-23 6 -1 36 -26 65 -56 29 -30 73 -72 97 -93 l43 -38 -22 -20 c-21 -20 -23
-20 -49 -3 -33 22 -175 164 -220 221 -19 23 -42 52 -53 64 -10 12 -19 27 -19
33 1 13 86 106 97 106 4 -1 28 -27 53 -60 50 -65 264 -280 323 -324 20 -16 37
-31 37 -35 0 -4 -22 -31 -49 -61 -28 -30 -47 -58 -43 -62 14 -13 128 -74 197
-105 67 -29 234 -75 320 -88 50 -7 213 -7 283 0 l53 6 -42 -83 c-60 -120 -119
-217 -138 -227 -43 -22 -305 -36 -399 -20 -26 4 -65 11 -87 14 -97 17 -335
112 -335 134 0 5 18 32 40 60 22 28 40 52 40 54 0 2 -33 26 -72 52 -78 51
-213 162 -264 217 -71 77 -156 182 -203 252 -28 41 -59 77 -68 79 -10 3 -57
15 -105 28 l-86 23 -46 105 c-25 59 -48 118 -52 134 -6 28 -3 33 110 160 13
16 37 30 51 32 42 4 56 33 29 59 -19 19 -54 5 -54 -22 0 -9 -21 -39 -46 -67
-106 -116 -111 -123 -106 -152 2 -15 27 -82 56 -148 l52 -120 107 -30 106 -30
52 -75 c129 -188 296 -354 467 -465 23 -15 42 -31 42 -35 0 -5 -18 -32 -41
-60 -23 -29 -37 -56 -33 -60 18 -17 151 -78 215 -99 72 -24 82 -26 184 -46 78
-15 343 -13 409 4 38 9 39 9 20 -9 -27 -26 -143 -40 -299 -36 -164 5 -196 10
-345 58 -62 19 -204 86 -242 112 -16 12 -15 17 22 66 22 30 40 57 40 60 0 4
-39 36 -87 72 -130 97 -295 274 -393 421 -18 27 -36 40 -65 47 -22 6 -70 19
-106 30 l-66 20 -46 105 c-26 58 -61 146 -78 195 l-31 89 30 38 c44 55 101
108 108 100 12 -11 44 13 44 33 0 25 -30 41 -53 29 -9 -6 -17 -18 -17 -28 0
-10 -12 -31 -26 -47 -90 -102 -96 -112 -89 -146 10 -44 74 -214 118 -309 l35
-77 63 -20 c35 -11 83 -25 106 -31 36 -10 50 -23 106 -99 134 -182 264 -309
426 -419 2 -1 -15 -28 -39 -59 l-43 -57 24 -18 c78 -60 290 -142 429 -165 98
-17 288 -19 375 -4 74 12 75 12 75 1 0 -38 -286 -60 -455 -35 -165 25 -402
117 -493 192 l-33 27 41 55 c22 29 37 57 33 61 -5 3 -39 32 -78 64 -97 81
-173 162 -266 286 l-81 106 -76 21 c-142 38 -129 25 -214 222 -6 14 -15 34
-19 45 -19 44 -79 238 -98 316 -30 127 -33 151 -20 176 15 28 -4 55 -35 51
-30 -4 -35 -54 -7 -63 12 -3 21 -12 22 -18 9 -142 181 -650 238 -701 9 -9 60
-27 112 -42 l94 -27 68 -92 c90 -123 299 -335 329 -335 12 0 9 -27 -4 -42 -22
-23 -58 -77 -58 -85 0 -11 150 -104 215 -133 146 -67 291 -100 450 -105 102
-3 226 6 285 20 l25 7 -23 -25 c-18 -19 -38 -27 -83 -32 -32 -4 -59 -11 -59
-15 0 -4 17 -4 38 1 20 5 46 9 57 9 31 0 4 -17 -45 -29 -31 -7 -35 -9 -12 -7
17 1 32 -1 32 -5 0 -9 -26 -19 -53 -20 -21 0 -21 -1 -2 -9 19 -7 18 -8 -7 -15
-15 -4 -29 -13 -32 -20 -2 -7 -35 -23 -73 -36 -124 -41 -364 -30 -519 24 -235
84 -487 261 -647 456 -15 18 -30 31 -33 28 -3 -3 9 -22 27 -43 18 -22 1 -8
-36 31 -92 95 -126 138 -172 218 -22 37 -43 64 -48 60 -4 -5 -5 -3 -2 3 6 10
-47 145 -87 224 -7 14 -23 57 -36 97 -15 45 -27 68 -32 60 -4 -7 -5 3 -2 21 5
23 3 32 -7 32 -9 0 -10 3 -4 8 6 4 24 29 41 55 l31 49 -15 59 c-18 74 -26 72
-10 -3 11 -54 11 -56 -19 -97 -16 -22 -33 -38 -36 -34 -14 13 -6 66 12 89 19
25 18 48 -8 149 l-11 40 5 -40 c3 -22 8 -58 11 -80 4 -29 1 -46 -11 -60 -16
-20 -17 18 -4 310 l0 20 9 -20 c6 -14 8 -4 5 30 -2 28 0 57 5 65 7 11 10 7 10
-17 0 -18 5 -33 11 -33 5 0 8 4 5 8 -13 22 -13 103 0 157 34 134 117 341 189
470 l44 80 1 -62 c0 -35 3 -63 8 -63 4 0 6 31 4 69 -2 49 2 79 13 100 8 17 17
31 20 31 2 0 4 -51 4 -112 1 -132 10 -246 22 -269 5 -9 42 -29 84 -44 71 -26
76 -30 85 -65 13 -49 68 -219 79 -245 5 -11 17 -40 27 -65 10 -25 44 -96 75
-157 l58 -113 -47 -51 c-26 -28 -50 -57 -54 -64 -8 -14 60 -125 144 -235 72
-94 274 -289 359 -347 220 -149 426 -219 664 -224 76 -2 105 0 105 9 0 4 -37
7 -83 7 -192 1 -322 33 -513 127 -123 61 -251 154 -364 268 -109 109 -144 152
-231 278 l-71 104 23 26 c13 15 26 29 29 32 3 3 18 19 33 36 l28 31 -60 114
c-33 63 -74 150 -91 194 -41 103 -100 284 -100 306 0 13 -23 26 -85 50 -47 17
-86 34 -86 38 -6 30 -10 78 -15 218 -5 121 -4 170 6 193 7 17 15 29 17 27 2
-3 5 -81 7 -173 3 -153 8 -210 19 -221 2 -2 39 -16 83 -32 76 -28 79 -30 87
-67 30 -151 177 -499 258 -616 11 -14 19 -30 19 -35 0 -4 -25 -34 -55 -67 -30
-32 -55 -61 -55 -65 0 -3 37 -56 82 -116 156 -210 364 -392 553 -484 176 -86
306 -120 483 -126 50 -2 92 1 92 5 0 5 -33 9 -72 9 -68 0 -115 5 -178 17 -14
3 -38 8 -55 10 -63 12 -221 75 -310 125 -172 95 -353 258 -496 448 -87 117
-86 108 -15 185 25 27 46 53 46 58 0 4 -16 33 -36 65 -64 98 -154 298 -205
453 -27 82 -49 158 -49 169 0 15 -18 25 -81 47 -64 22 -83 34 -91 54 -6 14
-11 103 -12 198 -2 142 0 179 13 203 18 33 159 219 167 219 2 0 1 -42 -2 -92z
m-359 -26 c-6 -4 -43 -34 -83 -67 -40 -32 -91 -79 -112 -103 l-38 -45 -37 58
c-36 56 -37 59 -19 72 10 7 61 27 114 43 164 50 192 57 175 42z m578 -172 c50
-61 103 -170 128 -266 22 -83 30 -278 17 -379 -9 -65 -38 -207 -45 -219 -17
-26 -113 228 -137 359 -11 56 -27 160 -32 200 -3 22 -7 54 -9 70 -3 17 -8 97
-11 179 l-6 149 29 -24 c16 -13 46 -44 66 -69z m-5799 -95 c29 -258 164 -502
371 -671 167 -138 436 -246 690 -280 22 -3 51 -7 65 -10 136 -23 533 -22 718
1 23 3 42 2 42 -2 0 -5 -30 -47 -67 -93 -355 -452 -764 -616 -1153 -463 -165
65 -364 216 -450 343 -20 30 -54 89 -75 130 -36 71 -107 272 -119 335 -23 130
-36 220 -41 289 -6 85 -6 336 -1 396 2 19 4 48 5 64 2 44 8 28 15 -39z m5144
-1533 c23 -51 42 -96 42 -100 -2 -18 -83 155 -110 234 -38 109 -39 135 -1 34
15 -41 46 -117 69 -168z m1314 -38 c84 -62 231 -148 297 -174 148 -58 307 -29
419 78 13 13 25 22 27 20 3 -3 -53 -150 -60 -156 -18 -19 -259 -22 -370 -4
-144 22 -385 113 -446 168 -17 16 -16 19 21 58 22 22 40 44 40 49 0 13 8 8 72
-39z m-4582 -804 c8 -9 39 -33 67 -55 35 -26 57 -51 65 -74 12 -37 15 -173 4
-216 -6 -23 -10 -25 -51 -20 -74 7 -119 17 -134 29 -35 27 -93 153 -106 228
-4 18 -8 34 -9 36 -6 6 13 79 34 127 l21 48 46 -44 c26 -24 54 -51 63 -59z"/>
<path d="M5440 6799 c-172 -25 -197 -30 -307 -53 -180 -38 -624 -192 -755
-262 -20 -11 -33 -12 -47 -4 -23 12 -47 5 -55 -17 -14 -37 45 -59 63 -24 19
35 396 179 666 255 149 42 247 62 410 82 28 3 59 9 70 11 30 8 457 14 483 7
29 -8 39 -28 48 -90 12 -92 14 -94 159 -120 49 -9 149 -46 225 -84 145 -73
260 -164 396 -311 45 -49 134 -174 134 -188 0 -5 4 -11 8 -13 4 -1 29 -43 54
-93 61 -121 126 -315 143 -430 4 -22 8 -51 11 -65 2 -14 7 -55 10 -91 l6 -67
-79 -41 -79 -41 -1 -139 c-1 -114 -4 -145 -19 -169 -20 -34 -13 -62 14 -62 31
0 46 24 31 52 -9 16 -12 66 -10 163 2 159 -4 146 99 198 l63 31 -6 61 c-3 33
-7 71 -10 85 -2 14 -9 55 -15 93 -28 177 -120 412 -224 571 -137 211 -310 367
-521 470 -97 48 -152 66 -312 106 -48 12 -50 17 -68 126 -10 68 -11 68 -247
70 -162 1 -243 -3 -338 -17z"/>
<path d="M5540 6739 c-139 -15 -277 -36 -357 -54 -13 -3 -33 -7 -44 -10 -159
-34 -420 -119 -593 -192 -72 -31 -147 -56 -166 -57 -32 -1 -35 -4 -35 -31 0
-25 4 -30 25 -30 16 0 29 8 37 24 35 72 677 279 978 316 28 3 76 9 108 14 95
13 424 11 435 -2 5 -7 15 -45 22 -85 7 -40 18 -76 24 -81 6 -5 34 -11 61 -14
148 -14 374 -107 506 -206 307 -233 492 -566 548 -989 9 -70 8 -71 -80 -116
-74 -38 -71 -33 -70 -160 2 -96 -1 -116 -15 -124 -22 -12 -15 -56 10 -60 28
-6 48 25 34 51 -6 11 -11 70 -12 130 -1 123 -5 115 88 163 73 37 74 42 52 183
-79 497 -360 882 -776 1066 -76 33 -208 71 -282 80 -29 4 -54 8 -55 9 -1 1 -4
15 -7 31 -17 92 -27 139 -31 144 -8 8 -331 8 -405 0z"/>
<path d="M6505 6550 c-7 -23 10 -50 32 -50 34 0 181 -118 282 -226 159 -171
282 -395 347 -632 25 -92 29 -111 39 -167 3 -16 7 -43 10 -60 6 -32 16 -131
19 -180 1 -27 -5 -33 -69 -67 -38 -20 -74 -39 -79 -40 -4 -2 -10 -60 -11 -128
-4 -148 -12 -231 -26 -244 -15 -16 -10 -45 10 -56 15 -7 23 -6 35 6 20 20 20
43 1 50 -13 5 -15 23 -9 117 4 61 7 140 8 176 l1 66 80 42 c56 29 79 47 79 60
0 22 -15 160 -19 188 -68 405 -210 696 -458 934 -75 73 -185 161 -199 161 -4
0 -8 9 -8 19 0 34 -12 51 -35 51 -15 0 -26 -8 -30 -20z"/>
<path d="M6183 6433 c-7 -2 -13 -15 -13 -28 0 -26 33 -43 53 -27 8 7 29 2 67
-18 30 -16 62 -32 70 -36 111 -55 320 -248 404 -373 86 -129 181 -346 201
-463 3 -17 7 -34 9 -37 4 -6 17 -98 20 -134 1 -12 -23 -32 -74 -62 l-75 -44
-1 -178 c-1 -98 -4 -196 -7 -218 -3 -22 -9 -63 -12 -92 l-7 -51 86 -47 c47
-26 86 -52 86 -59 0 -7 -4 -37 -10 -67 -5 -30 -11 -66 -14 -82 -3 -15 -7 -35
-10 -45 -3 -9 -7 -28 -10 -42 -26 -143 -96 -372 -119 -390 -26 -22 -15 -60 18
-60 27 0 41 30 27 56 -6 11 -3 37 10 78 46 147 107 411 123 531 l6 50 -45 23
c-25 12 -64 33 -87 48 l-41 26 7 61 c4 34 9 80 11 102 6 69 6 324 0 334 -3 5
30 30 74 55 70 41 83 53 82 76 0 10 -13 86 -22 142 -28 154 -138 407 -233 533
-119 159 -322 326 -483 397 -16 7 -35 21 -42 30 -13 18 -26 21 -49 11z"/>
<path d="M6883 6319 c-17 -17 -3 -50 26 -55 17 -4 42 -27 73 -67 121 -160 217
-369 272 -592 32 -127 54 -285 61 -435 l6 -126 -82 -39 c-44 -21 -82 -43 -84
-49 -2 -6 -6 -53 -9 -103 -6 -82 -10 -127 -32 -288 -3 -22 -11 -71 -18 -108
l-13 -68 31 7 c17 3 42 12 56 19 14 7 39 15 55 19 78 19 77 16 100 326 4 47 8
102 10 123 1 20 -1 37 -5 37 -4 0 -27 -9 -51 -19 -32 -15 -44 -26 -45 -43 -2
-44 -16 -203 -17 -213 -1 -5 -8 -16 -15 -23 -28 -30 11 -78 42 -53 20 17 21
50 2 57 -9 3 -13 16 -11 32 2 15 7 67 10 115 7 77 11 90 33 107 35 28 40 25
37 -17 -2 -21 -6 -83 -10 -138 -3 -55 -8 -111 -10 -125 -2 -14 -7 -47 -10 -75
-3 -27 -9 -53 -13 -56 -4 -4 -32 -14 -62 -24 -30 -10 -59 -20 -65 -24 -31 -18
-37 -10 -30 37 4 26 9 56 10 67 7 51 15 112 19 130 4 20 12 106 21 235 3 36 8
66 13 68 4 2 41 20 82 40 l75 37 -1 60 c0 67 -11 226 -18 265 -3 14 -7 43 -10
65 -42 295 -149 562 -313 783 -30 41 -52 76 -49 79 3 3 1 14 -5 24 -11 21 -39
25 -56 8z"/>
<path d="M6502 6141 c-23 -14 -10 -56 18 -59 76 -10 249 -255 327 -461 21 -57
73 -255 73 -280 0 -5 -34 -31 -75 -57 -41 -26 -76 -52 -76 -58 -1 -6 0 -29 1
-51 5 -84 4 -234 -3 -330 -7 -94 -10 -126 -23 -202 -5 -31 -3 -33 75 -75 44
-24 83 -48 85 -55 5 -12 -66 -339 -76 -348 -1 -1 -32 -12 -66 -25 -42 -14 -67
-19 -74 -12 -23 23 -64 -10 -52 -42 11 -27 64 -27 64 0 0 14 30 30 105 56 40
14 40 14 63 103 26 105 26 107 46 205 8 41 13 77 10 81 -2 4 -38 26 -78 48
-41 22 -77 45 -80 49 -3 5 1 63 10 128 9 75 14 185 13 297 -2 146 0 180 12
187 136 80 139 83 132 120 -46 266 -153 499 -308 668 -37 40 -68 78 -69 85 -5
34 -27 45 -54 28z"/>
<path d="M6482 6048 c-27 -27 -10 -60 33 -62 24 -1 82 -64 144 -154 100 -148
207 -434 180 -484 -12 -21 -39 -24 -39 -4 0 24 -50 176 -78 236 -14 30 -26 73
-28 94 -4 52 -42 76 -62 40 -17 -30 -1 -60 30 -55 10 1 75 -162 103 -258 l25
-86 -22 -17 c-26 -19 -38 -15 -38 12 0 35 -68 227 -110 312 -72 143 -160 250
-263 318 -21 14 -40 35 -43 47 -7 27 -40 36 -59 16 -19 -19 -19 -28 1 -48 10
-9 24 -13 36 -10 35 12 169 -104 237 -205 79 -118 137 -251 171 -393 17 -71
17 -81 4 -94 -9 -9 -12 -22 -8 -32 14 -32 13 -402 -1 -501 -8 -52 -17 -113
-20 -135 l-6 -40 77 -40 c42 -22 79 -46 81 -52 8 -20 -41 -207 -58 -224 -9 -9
-65 -35 -123 -58 -86 -33 -111 -39 -127 -30 -39 20 -70 -38 -32 -60 21 -11 53
3 53 23 0 7 21 21 48 31 26 10 82 31 124 48 l77 30 15 51 c25 89 46 177 46
194 0 11 -29 33 -80 60 -44 24 -80 49 -80 56 0 7 4 35 9 62 24 128 35 446 18
559 l-7 50 81 50 c72 45 79 52 73 75 -3 14 -8 36 -10 50 -31 167 -148 404
-267 538 -26 29 -47 57 -47 62 0 10 -28 40 -39 40 -4 0 -12 -5 -19 -12z"/>
<path d="M6404 5178 c-5 -16 -1 -26 14 -38 11 -10 24 -35 28 -56 3 -21 8 -47
10 -56 3 -19 -29 -49 -97 -92 l-44 -28 0 -127 c1 -110 -10 -226 -30 -339 -6
-38 -8 -38 97 25 65 38 62 34 82 158 5 35 18 199 18 235 0 52 0 52 -33 33 -48
-28 -52 -38 -57 -130 -2 -52 -10 -95 -18 -108 -20 -31 -8 -57 25 -53 30 3 41
37 18 56 -11 9 -13 33 -10 99 4 71 9 92 25 110 39 42 40 33 23 -191 -3 -39 -8
-80 -10 -93 -3 -13 -7 -34 -10 -47 -3 -16 -25 -37 -62 -60 -32 -20 -61 -36
-66 -36 -8 0 -4 42 9 110 3 14 8 97 11 185 3 88 9 165 15 172 5 6 36 29 69 50
56 36 59 40 59 78 0 22 -4 54 -9 72 -6 19 -5 35 1 41 5 5 7 19 3 31 -9 29 -51
28 -61 -1z"/>
<path d="M3968 5155 c-2 -1 -29 -5 -61 -8 -78 -7 -151 -60 -275 -201 -151
-170 -311 -494 -404 -816 -21 -74 -40 -141 -43 -147 -2 -7 -3 -13 0 -13 2 0
27 46 56 103 132 259 213 385 396 615 21 26 91 20 196 -16 126 -43 169 -45
232 -7 47 27 149 114 142 121 -1 2 -31 -6 -66 -16 -145 -45 -238 -8 -281 111
-17 48 -6 86 36 126 45 42 57 42 40 1 -34 -86 28 -183 121 -189 117 -8 195
103 142 203 -10 18 -9 18 18 5 46 -24 64 -51 65 -97 0 -23 -5 -47 -11 -53 -6
-6 -11 -18 -11 -26 0 -26 78 59 97 106 10 23 23 45 29 47 18 7 92 -13 152 -40
30 -14 56 -23 59 -21 8 9 -90 107 -139 138 -98 63 -163 78 -335 77 -83 0 -153
-1 -155 -3z"/>
<path d="M5506 5118 c5 -87 16 -172 24 -188 5 -8 38 -26 75 -40 75 -28 89 -43
105 -114 14 -66 69 -209 129 -341 l50 -109 -50 -54 c-27 -29 -49 -58 -49 -64
0 -30 128 -230 213 -333 208 -251 397 -391 647 -480 69 -25 122 -40 180 -50
53 -10 306 -18 298 -11 -3 4 -55 9 -115 11 -270 8 -523 103 -738 278 -69 56
-191 180 -254 255 -84 104 -211 299 -211 325 0 7 17 30 38 52 68 73 66 65 28
141 -19 38 -47 96 -61 128 -37 84 -47 112 -104 295 -17 54 -18 55 -87 83 -38
16 -74 34 -81 41 -11 10 -26 129 -27 205 0 12 -3 22 -7 22 -3 0 -5 -24 -3 -52z"/>
<path d="M5264 4530 c4 -30 23 -121 42 -201 l36 -146 -31 -43 c-17 -24 -31
-50 -31 -59 0 -33 76 -225 142 -356 64 -127 194 -332 205 -321 3 2 -13 28 -34
58 -99 135 -214 358 -273 525 l-32 92 36 49 36 50 -19 60 c-21 64 -59 231 -68
297 -8 62 -16 57 -9 -5z"/>
<path d="M5242 4475 c0 -16 2 -22 5 -12 2 9 2 23 0 30 -3 6 -5 -1 -5 -18z"/>
<path d="M5252 4420 c0 -14 4 -36 8 -50 6 -20 8 -21 8 -5 0 11 -4 34 -8 50 -7
27 -8 27 -8 5z"/>
<path d="M5367 4069 c-31 -45 -34 -54 -25 -80 12 -36 21 -38 12 -4 -5 18 1 37
21 67 26 39 28 40 41 23 8 -10 14 -23 14 -27 0 -8 69 -162 89 -198 42 -78 73
-129 127 -212 35 -53 64 -100 64 -103 0 -4 -13 -24 -30 -45 -16 -21 -30 -44
-30 -50 0 -19 64 -94 159 -188 133 -131 325 -249 491 -301 80 -26 210 -51 210
-41 0 4 -26 11 -57 15 -128 15 -305 89 -463 193 -89 58 -320 281 -320 308 0
15 25 59 47 82 19 20 16 34 -15 72 -67 81 -222 363 -267 483 -10 26 -21 50
-25 52 -4 3 -23 -18 -43 -46z"/>
<path d="M5360 3949 c0 -14 52 -134 86 -195 21 -38 51 -94 68 -124 57 -102 53
-99 76 -70 11 14 20 28 20 32 0 4 -15 31 -34 60 -74 118 -100 173 -101 213 0
38 -2 40 -30 40 -25 0 -30 -4 -30 -25 0 -17 8 -29 28 -38 15 -7 27 -17 27 -21
0 -12 90 -172 108 -194 13 -14 13 -22 3 -44 -12 -26 -12 -26 -58 53 -25 43
-72 133 -104 199 -32 66 -59 117 -59 114z"/>
<path d="M5605 3793 c-8 -8 -15 -18 -15 -23 0 -15 30 -39 43 -35 7 2 45 -42
85 -98 40 -56 95 -127 122 -157 27 -30 50 -58 50 -63 0 -4 -13 -26 -30 -49
-16 -22 -30 -47 -30 -53 0 -16 89 -93 186 -163 163 -115 348 -188 524 -206 34
-3 14 4 -55 19 -176 38 -310 94 -446 185 -76 53 -189 149 -189 162 0 6 15 31
34 57 l34 46 -49 53 c-28 30 -76 88 -107 130 -31 43 -59 79 -62 82 -15 14 -41
62 -39 73 6 45 -27 69 -56 40z"/>
<path d="M5697 3779 c-28 -16 -21 -49 13 -62 17 -6 30 -15 30 -19 0 -7 114
-153 139 -178 9 -9 38 -38 64 -66 l48 -50 -36 -47 c-19 -25 -35 -50 -35 -55 0
-21 163 -140 266 -194 88 -46 211 -92 289 -107 33 -7 68 -15 78 -17 9 -3 17
-1 17 5 0 6 -3 10 -7 9 -37 -10 -228 50 -345 107 -93 46 -278 176 -278 195 0
4 16 28 36 54 27 35 33 50 25 60 -6 7 -43 46 -82 87 -111 116 -178 210 -172
241 6 32 -22 52 -50 37z"/>
<path d="M5781 3722 c-12 -23 4 -52 29 -52 10 0 26 -13 36 -29 9 -15 63 -74
120 -131 57 -57 104 -106 104 -108 0 -2 -16 -26 -36 -53 -19 -27 -33 -53 -29
-59 8 -14 118 -91 185 -130 95 -56 254 -114 365 -134 25 -5 139 -18 155 -18
69 -1 60 7 -14 13 -121 10 -188 23 -291 59 -105 36 -179 71 -244 114 -29 20
-56 36 -60 36 -3 1 -23 15 -44 33 l-38 33 36 46 c19 26 35 52 35 57 0 6 -34
44 -77 84 -107 101 -175 185 -171 211 1 11 -1 27 -5 34 -12 18 -45 15 -56 -6z"/>
<path d="M6823 3013 c15 -2 39 -2 55 0 15 2 2 4 -28 4 -30 0 -43 -2 -27 -4z"/>
<path d="M6910 2990 c-9 -6 -10 -10 -3 -10 6 0 15 5 18 10 8 12 4 12 -15 0z"/>
<path d="M6580 2986 c0 -9 40 -13 46 -5 3 5 -6 9 -20 9 -14 0 -26 -2 -26 -4z"/>
<path d="M6780 2980 c-12 -7 -10 -9 7 -7 12 0 19 5 17 9 -6 10 -6 10 -24 -2z"/>
<path d="M6708 2973 c12 -2 30 -2 40 0 9 3 -1 5 -23 4 -22 0 -30 -2 -17 -4z"/>
<path d="M6873 2953 c9 -2 23 -2 30 0 6 3 -1 5 -18 5 -16 0 -22 -2 -12 -5z"/>
<path d="M6603 2944 c9 -9 67 -13 67 -4 0 4 -16 7 -36 8 -20 1 -34 -1 -31 -4z"/>
<path d="M6686 2942 c-2 -4 4 -8 14 -8 10 0 16 4 14 8 -3 4 -9 8 -14 8 -5 0
-11 -4 -14 -8z"/>
<path d="M6788 2943 c7 -3 16 -2 19 1 4 3 -2 6 -13 5 -11 0 -14 -3 -6 -6z"/>
<path d="M6828 2943 c7 -3 16 -2 19 1 4 3 -2 6 -13 5 -11 0 -14 -3 -6 -6z"/>
<path d="M6868 2923 c6 -2 18 -2 25 0 6 3 1 5 -13 5 -14 0 -19 -2 -12 -5z"/>
<path d="M6548 2903 c12 -2 32 -2 45 0 12 2 2 4 -23 4 -25 0 -35 -2 -22 -4z"/>
<path d="M6628 2903 c7 -3 16 -2 19 1 4 3 -2 6 -13 5 -11 0 -14 -3 -6 -6z"/>
<path d="M6708 2903 c12 -2 30 -2 40 0 9 3 -1 5 -23 4 -22 0 -30 -2 -17 -4z"/>
</g>
</svg>
